<svg width="369" height="79" viewBox="0 0 369 79" fill="none" xmlns="http://www.w3.org/2000/svg">
<g clip-path="url(#clip0_1_9)">
<path d="M28.5103 0.530632H45.2327V5.80497H33.736V10.0244H44.1875V15.2988H33.736V25.3232H28.5103V0.530632Z" fill="#3F4139"/>
<path d="M54.3983 0.530632V15.2988C54.3983 18.2204 56.7356 20.5731 59.624 20.5731C62.5124 20.5731 64.8497 18.214 64.8497 15.2988V0.530632H70.0755V15.2988C70.0755 21.1357 65.4072 25.8475 59.624 25.8475C53.8409 25.8475 49.1725 21.1357 49.1725 15.2988V0.530632H54.3983Z" fill="#3F4139"/>
<path d="M80.2166 6.25888V25.3168H74.9908V0.530632H82.9023L92.7647 18.9237V0.530632H97.9904V25.3232H90.4653L80.2229 6.26528L80.2166 6.25888Z" fill="#3F4139"/>
<path d="M119.552 6.71919C118.298 5.80497 116.765 5.27434 115.093 5.27434C110.912 5.27434 107.53 8.72024 107.53 12.9397C107.53 17.1592 110.912 20.5731 115.093 20.5731C117.012 20.5731 118.786 19.8699 120.109 18.6744L124.467 21.7686C122.13 24.2683 118.824 25.8475 115.131 25.8475C108.055 25.8475 102.342 20.0808 102.342 12.9397C102.342 5.79857 108.055 0 115.131 0C118.444 0 121.402 1.26584 123.701 3.34361L119.552 6.71919Z" fill="#3F4139"/>
<path d="M125.164 0.530632H143.983V5.80497H137.187V25.3232H131.961V5.80497H125.164V0.530632Z" fill="#3F4139"/>
<path d="M147.258 0.530632H152.484V25.3232H147.258V0.530632Z" fill="#3F4139"/>
<path d="M169.314 0C176.389 0 182.134 5.80497 182.134 12.9397C182.134 20.0744 176.383 25.8475 169.314 25.8475C162.245 25.8475 156.525 20.0808 156.525 12.9397C156.525 5.79857 162.238 0 169.314 0ZM169.282 20.5731C173.463 20.5731 176.877 17.1592 176.877 12.9397C176.877 8.72024 173.463 5.27434 169.282 5.27434C165.101 5.27434 161.719 8.72024 161.719 12.9397C161.719 17.1592 165.101 20.5731 169.282 20.5731Z" fill="#3F4139"/>
<path d="M191.401 6.25888V25.3168H186.175V0.530632H194.087L203.949 18.9237V0.530632H209.175V25.3232H201.65L191.407 6.26528L191.401 6.25888Z" fill="#3F4139"/>
<path d="M220.703 0.530632H226.803L235.411 25.3232H229.799L227.988 20.0489H219.487L217.675 25.3232H212.133L220.703 0.530632ZM221.33 14.7745H226.176L223.769 7.70373L221.33 14.7745Z" fill="#3F4139"/>
<path d="M238.091 0.530632H243.316V20.0489H253.768V25.3232H238.091V0.530632Z" fill="#3F4139"/>
<path d="M112.787 61.2846L112.762 51.3625C112.749 46.7402 109.031 43.0002 104.445 43.013L0.316711 43.2688C0.139353 43.2688 0 43.4158 0 43.5948V45.046C0 45.2251 0.145687 45.3657 0.323045 45.3657L104.451 45.11C107.884 45.1036 110.672 47.9038 110.684 51.3689L110.71 61.291C110.735 71.0981 118.627 79.0256 128.344 79L225.036 78.7634C225.213 78.7634 225.353 78.6164 225.353 78.4374V76.9862C225.353 76.8071 225.207 76.6665 225.03 76.6665L128.338 76.903C119.774 76.9222 112.812 69.9345 112.787 61.2846Z" fill="#2F4792"/>
<path d="M117.348 60.5814V51.3625C117.348 44.0999 111.514 38.2118 104.318 38.2118H0.361023C0.183664 38.2118 0.0443115 38.3588 0.0443115 38.5314V39.9827C0.0443115 40.1617 0.189999 40.3023 0.361023 40.3023H104.318C110.367 40.3023 115.27 45.2506 115.27 51.3561V60.5686C115.27 67.8312 121.104 73.7193 128.3 73.7193H224.991C225.169 73.7193 225.308 73.5722 225.308 73.3996V71.9484C225.308 71.7694 225.163 71.6287 224.991 71.6287H128.3C122.25 71.6287 117.348 66.6804 117.348 60.575V60.5814Z" fill="#D35632"/>
<path d="M128.293 66.3224C124.86 66.3224 122.079 63.5158 122.079 60.0507V51.3625C122.079 41.5554 114.206 33.6087 104.489 33.6087H0.361023C0.183664 33.6087 0.0443115 33.7558 0.0443115 33.9284V35.3796C0.0443115 35.5586 0.189999 35.6993 0.361023 35.6993H104.489C113.053 35.6993 120.002 42.7062 120.002 51.3561V60.0443C120.002 64.6666 123.714 68.413 128.293 68.413H224.985C225.162 68.413 225.302 68.2659 225.302 68.0933V66.6421C225.302 66.4631 225.156 66.3224 224.985 66.3224H128.293Z" fill="#AE65CF"/>
<path d="M129.871 34.1074H137.022L143.141 51.1771L149.323 34.1074H156.443V57.8899H151.432V43.045L146.086 57.8899H140.24L134.894 43.1473V57.8899H129.883V34.1074H129.871Z" fill="#3F4139"/>
<path d="M167.306 34.1074H173.152L181.406 57.8899H176.028L174.292 52.8329H166.14L164.405 57.8899H159.09L167.312 34.1074H167.306ZM167.907 47.7695H172.55L170.245 40.9864L167.907 47.7695Z" fill="#3F4139"/>
<path d="M191.236 48.7796H188.994V57.8899H183.984V34.1074H194.277C198.286 34.1074 201.561 37.4126 201.561 41.4595C201.561 44.6305 199.553 47.3284 196.747 48.3385L201.897 57.8835H196.145L191.23 48.7733L191.236 48.7796ZM188.994 39.1644V43.7163H194.277C195.544 43.7163 196.551 42.7381 196.551 41.4595C196.551 40.1809 195.55 39.1644 194.277 39.1644H188.994Z" fill="#3F4139"/>
<path d="M214.059 45.3082L225.859 57.8899H218.873L210.651 49.0546V57.8899H205.641V34.1074H210.651V41.6321L217.802 34.1074H224.688L214.059 45.3082Z" fill="#3F4139"/>
<path d="M227.766 34.1074H243.811V39.1644H232.783V43.2112H243.31V48.2682H232.783V52.8201H244.311V57.8771H227.766V34.0946V34.1074Z" fill="#3F4139"/>
<path d="M246.813 34.1074H264.859V39.1644H258.341V57.8835H253.331V39.1644H246.813V34.1074Z" fill="#3F4139"/>
<path d="M268.001 34.1074H278.294C282.304 34.1074 285.578 37.4126 285.578 41.4595C285.578 45.5064 282.304 48.7796 278.294 48.7796H273.011V57.8899H268.001V34.1074ZM273.011 39.1644V43.7163H278.294C279.561 43.7163 280.568 42.7381 280.568 41.4595C280.568 40.1809 279.567 39.1644 278.294 39.1644H273.011Z" fill="#3F4139"/>
<path d="M289.056 34.1074H294.066V52.8265H304.093V57.8835H289.056V34.101V34.1074Z" fill="#3F4139"/>
<path d="M312.885 34.1074H318.732L326.985 57.8899H321.607L319.872 52.8329H311.72L309.984 57.8899H304.67L312.892 34.1074H312.885ZM313.487 47.7695H318.13L315.824 40.9864L313.487 47.7695Z" fill="#3F4139"/>
<path d="M345.069 40.0466C343.866 39.1708 342.396 38.6657 340.794 38.6657C336.784 38.6657 333.541 41.971 333.541 46.0178C333.541 50.0647 336.784 53.3379 340.794 53.3379C342.631 53.3379 344.335 52.6603 345.608 51.5159L349.788 54.4823C347.546 56.8797 344.373 58.3949 340.832 58.3949C334.048 58.3949 328.569 52.8649 328.569 46.0178C328.569 39.1708 334.048 33.6023 340.832 33.6023C344.005 33.6023 346.849 34.817 349.054 36.8053L345.076 40.0466H345.069Z" fill="#3F4139"/>
<path d="M352.455 34.1074H368.5V39.1644H357.472V43.2112H367.999V48.2682H357.472V52.8201H369V57.8771H352.455V34.0946V34.1074Z" fill="#3F4139"/>
</g>
<defs>
<clipPath id="clip0_1_9">
<rect width="369" height="79" fill="white"/>
</clipPath>
</defs>
</svg>
